<svg width="1em" height="1em" viewBox="0 0 24 24" fill="#fe7d09" xmlns="http://www.w3.org/2000/svg"><path fill-rule="evenodd" clip-rule="evenodd" d="M12 3.75C10.2051 3.75 8.75 5.20507 8.75 7C8.75 8.79493 10.2051 10.25 12 10.25C13.7949 10.25 15.25 8.79493 15.25 7C15.25 5.20507 13.7949 3.75 12 3.75ZM7.25 7C7.25 4.37665 9.37665 2.25 12 2.25C14.6234 2.25 16.75 4.37665 16.75 7C16.75 9.62335 14.6234 11.75 12 11.75C9.37665 11.75 7.25 9.62335 7.25 7ZM21 6.75C20.4015 6.75 19.8701 7.17411 19.7273 7.7415C19.6262 8.14319 19.2186 8.38686 18.8169 8.28576C18.4153 8.18466 18.1716 7.77707 18.2727 7.37538C18.581 6.15033 19.7049 5.25 21 5.25C22.5675 5.25 23.75 6.54779 23.75 8.07792C23.75 9.21634 22.9549 9.79559 22.482 10.1401C22.4685 10.1499 22.4553 10.1595 22.4424 10.1689C21.8868 10.5748 21.75 10.7206 21.75 11C21.75 11.4142 21.4142 11.75 21 11.75C20.5858 11.75 20.25 11.4142 20.25 11C20.25 9.90483 21.034 9.33702 21.4923 9.00509C21.5149 8.98873 21.5367 8.97294 21.5576 8.9577C22.0911 8.56799 22.25 8.4006 22.25 8.07792C22.25 7.31284 21.677 6.75 21 6.75ZM21 12.25C21.4142 12.25 21.75 12.5858 21.75 13V13.01C21.75 13.4242 21.4142 13.76 21 13.76C20.5858 13.76 20.25 13.4242 20.25 13.01V13C20.25 12.5858 20.5858 12.25 21 12.25ZM3.25 19C3.25 16.3766 5.37665 14.25 8 14.25H16C18.6234 14.25 20.75 16.3766 20.75 19V21C20.75 21.4142 20.4142 21.75 20 21.75C19.5858 21.75 19.25 21.4142 19.25 21V19C19.25 17.2051 17.7949 15.75 16 15.75H8C6.20507 15.75 4.75 17.2051 4.75 19V21C4.75 21.4142 4.41421 21.75 4 21.75C3.58579 21.75 3.25 21.4142 3.25 21V19Z"></path></svg>